<?xml version="1.0" encoding="utf-8"?>
<!-- Generator: Adobe Illustrator 26.0.1, SVG Export Plug-In . SVG Version: 6.00 Build 0)  -->
<svg version="1.1" id="Layer_1" xmlns="http://www.w3.org/2000/svg" xmlns:xlink="http://www.w3.org/1999/xlink" x="0px" y="0px"
	 viewBox="0 0 132.5 62.5" style="enable-background:new 0 0 132.5 62.5;" xml:space="preserve">
<style type="text/css">
	.st0{fill:#1D0E46;}
	.st1{fill:#A88452;}
</style>
<g>
	<g>
		<g>
			<path class="st0" d="M79,20.1c-1.6,0.6-2.7,1.9-2.7,3.5l-16.4-8.5l-0.1,0l3.3-1.8l1.9-1l1.5,0.8l3.9,2.2l3.9,2.2L79,20.1z"/>
			<polygon class="st1" points="65,0.2 65,8.8 64.8,8.9 62.9,9.9 59.4,11.8 58.8,12.2 52.2,15.8 39,23.2 39,14.7 45.7,11 52.2,7.4 
				58.2,3.9 64.8,0.3 			"/>
			<polygon class="st0" points="90.6,15.1 90.6,23.1 87.3,21.2 77.7,15.9 70.7,12 66.6,9.7 65,8.8 65,8.8 65,0.2 65,0.2 71.6,4 
				77,7.2 77.9,7.7 			"/>
		</g>
		<g>
			<path class="st0" d="M2.1,31.3v30.5H8V31.3H2.1z M6.4,31.3v5.2h16.1v-5.2H6.4z M6.4,44.1v5.2h15.4v-5.2H6.4z M27.2,31.3v30.5h5.9
				V31.3H27.2z M65.8,31.3L54.7,49.2L43.5,31.3h-4.2v30.5h5.9V43.6l7.4,12h4.1l7.4-11.9v18.2H70V31.3H65.8z M91.1,31.3h-4.9
				L73.9,61.8h6.2l2.2-5.7l1.9-4.9l4.4-11.5L93,51.2l1.9,4.9l2.2,5.7h6.3L91.1,31.3z M80.5,51.2v4.9h16.4v-4.9H80.5z M118.9,62.4
				c-2.3,0-4.3-0.4-6.2-1.2c-1.9-0.8-3.6-1.9-5-3.4c-1.4-1.4-2.5-3.1-3.3-5c-0.8-1.9-1.2-4-1.2-6.2c0-2.2,0.4-4.3,1.2-6.2
				c0.8-1.9,1.9-3.6,3.3-5c1.4-1.4,3.1-2.5,5-3.3c1.9-0.8,4-1.2,6.2-1.2c2.5,0,4.7,0.4,6.5,1.2c1.8,0.8,3.5,1.9,4.9,3.2l-4,4
				c-0.8-0.9-1.9-1.6-3.1-2.2c-1.2-0.5-2.6-0.8-4.3-0.8c-1.4,0-2.7,0.2-3.8,0.7c-1.2,0.5-2.2,1.2-3.1,2.1c-0.9,0.9-1.5,2-2,3.3
				c-0.5,1.3-0.7,2.6-0.7,4.1c0,1.5,0.2,2.9,0.7,4.2c0.5,1.3,1.1,2.3,2,3.2c0.9,0.9,1.9,1.6,3.1,2.1c1.2,0.5,2.5,0.7,3.9,0.7
				c1.7,0,3.2-0.3,4.4-0.8c1.2-0.5,2.3-1.3,3.1-2.2l4,4c-1.4,1.4-3.1,2.5-5,3.3C123.5,62,121.4,62.4,118.9,62.4z"/>
		</g>
	</g>
	<ellipse class="st1" cx="81" cy="23.8" rx="3" ry="2.4"/>
</g>
</svg>
