<?xml version="1.0" encoding="utf-8"?>
<!-- Generator: Adobe Illustrator 26.0.1, SVG Export Plug-In . SVG Version: 6.00 Build 0)  -->
<svg version="1.1" id="Layer_1" xmlns="http://www.w3.org/2000/svg" xmlns:xlink="http://www.w3.org/1999/xlink" x="0px" y="0px"
	 viewBox="0 0 132.5 62.5" style="enable-background:new 0 0 132.5 62.5;" xml:space="preserve">
<style type="text/css">
	.st0{fill:url(#SVGID_1_);}
	.st1{fill:url(#SVGID_00000014601122757902874390000007351112162749160845_);}
	.st2{fill:url(#SVGID_00000086660005514587753600000012050466322091175852_);}
	.st3{fill:url(#SVGID_00000156549507756761173200000000644247586810676625_);}
	.st4{fill:url(#SVGID_00000093173022826893552960000011893860695307835542_);}
</style>
<g>
	<g>
		<g>
			<linearGradient id="SVGID_1_" gradientUnits="userSpaceOnUse" x1="59.8" y1="17.9499" x2="79" y2="17.9499">
				<stop  offset="0" style="stop-color:#BE9D70"/>
				<stop  offset="0.34" style="stop-color:#AA8958"/>
				<stop  offset="0.45" style="stop-color:#A58251"/>
				<stop  offset="0.59" style="stop-color:#A58251"/>
				<stop  offset="0.86" style="stop-color:#D6B88D"/>
				<stop  offset="1" style="stop-color:#D6B88D"/>
			</linearGradient>
			<path class="st0" d="M79,20.1c-1.6,0.6-2.7,1.9-2.7,3.5l-16.4-8.5h-0.1l3.3-1.8l1.9-1l1.5,0.8l3.9,2.2l3.9,2.2L79,20.1z"/>
			
				<linearGradient id="SVGID_00000166644236829387915500000004602550998589167019_" gradientUnits="userSpaceOnUse" x1="39" y1="11.6999" x2="65" y2="11.6999">
				<stop  offset="0" style="stop-color:#D6B88D"/>
				<stop  offset="0.14" style="stop-color:#D6B88D"/>
				<stop  offset="0.41" style="stop-color:#A58251"/>
				<stop  offset="0.55" style="stop-color:#A58251"/>
				<stop  offset="0.66" style="stop-color:#AA8958"/>
				<stop  offset="1" style="stop-color:#BE9D70"/>
			</linearGradient>
			<polygon style="fill:url(#SVGID_00000166644236829387915500000004602550998589167019_);" points="65,0.2 65,8.8 64.8,8.9 
				62.9,9.9 59.4,11.8 58.8,12.2 52.2,15.8 39,23.2 39,14.7 45.7,11 52.2,7.4 58.2,3.9 64.8,0.3 			"/>
			
				<linearGradient id="SVGID_00000021822059312824079230000009728911778774274484_" gradientUnits="userSpaceOnUse" x1="65" y1="11.6499" x2="90.6" y2="11.6499">
				<stop  offset="0.86" style="stop-color:#D6B88D"/>
				<stop  offset="1" style="stop-color:#D6B88D"/>
			</linearGradient>
			<polygon style="fill:url(#SVGID_00000021822059312824079230000009728911778774274484_);" points="90.6,15.1 90.6,23.1 87.3,21.2 
				77.7,15.9 70.7,12 66.6,9.7 65,8.8 65,8.8 65,0.2 65,0.2 71.6,4 77,7.2 77.9,7.7 			"/>
		</g>
	</g>
	
		<linearGradient id="SVGID_00000032638436220964135380000009433944656649845658_" gradientUnits="userSpaceOnUse" x1="78" y1="40.8457" x2="84" y2="40.8457" gradientTransform="matrix(1 0 0 -1 0 64.6456)">
		<stop  offset="0" style="stop-color:#BE9D70"/>
		<stop  offset="0.34" style="stop-color:#AA8958"/>
		<stop  offset="0.45" style="stop-color:#A58251"/>
		<stop  offset="0.59" style="stop-color:#A58251"/>
		<stop  offset="0.86" style="stop-color:#D6B88D"/>
		<stop  offset="1" style="stop-color:#D6B88D"/>
	</linearGradient>
	<ellipse style="fill:url(#SVGID_00000032638436220964135380000009433944656649845658_);" cx="81" cy="23.8" rx="3" ry="2.4"/>
</g>
<linearGradient id="SVGID_00000016773171302082430320000001123804850347072171_" gradientUnits="userSpaceOnUse" x1="-1708.4869" y1="-1168.3442" x2="1708.4869" y2="-1168.3442">
	<stop  offset="0" style="stop-color:#BE9D70"/>
	<stop  offset="0.34" style="stop-color:#AA8958"/>
	<stop  offset="0.45" style="stop-color:#A58251"/>
	<stop  offset="0.59" style="stop-color:#A58251"/>
	<stop  offset="0.86" style="stop-color:#D6B88D"/>
	<stop  offset="1" style="stop-color:#D6B88D"/>
</linearGradient>
<rect x="-1708.5" y="-1785.7" style="fill:url(#SVGID_00000016773171302082430320000001123804850347072171_);" width="3417" height="1234.8"/>
</svg>
