<svg id="Layer_1" data-name="Layer 1" xmlns="http://www.w3.org/2000/svg" xmlns:xlink="http://www.w3.org/1999/xlink" viewBox="0 0 139.15 67.46"><defs><style>.cls-1{fill:url(#linear-gradient);}.cls-2{fill:url(#linear-gradient-2);}.cls-3{fill:url(#linear-gradient-3);}.cls-4{fill:#d7b98e;}.cls-5{fill:url(#linear-gradient-4);}</style><linearGradient id="linear-gradient" x1="22.18" y1="81.35" x2="161.33" y2="81.35" gradientUnits="userSpaceOnUse"><stop offset="0" stop-color="#bf9e70"/><stop offset="0.34" stop-color="#ac8a59"/><stop offset="0.45" stop-color="#a78352"/><stop offset="0.59" stop-color="#a78352"/><stop offset="0.86" stop-color="#d7b98e"/><stop offset="1" stop-color="#d7b98e"/></linearGradient><linearGradient id="linear-gradient-2" x1="84.73" y1="50.2" x2="105.62" y2="50.2" xlink:href="#linear-gradient"/><linearGradient id="linear-gradient-3" x1="40.05" y1="12.46" x2="68.2" y2="12.46" xlink:href="#linear-gradient"/><linearGradient id="linear-gradient-4" x1="82.3" y1="25.68" x2="88.81" y2="25.68" xlink:href="#linear-gradient"/></defs><path class="cls-1" d="M22.18,64.75V97.84h6.4V64.75Zm4.71,0V70.4H44.35V64.75Zm0,13.89v5.64H43.54V78.64ZM49.38,64.75V97.84h6.41V64.75Zm41.89,0L79.2,84.14,67.08,64.75H62.56V97.84H69V78.09l8,13h4.42l8-12.92V97.84h6.4V64.75Zm27.44,0h-5.27L100.07,97.84h6.78l2.35-6.17,2-5.36L116,73.82l4.73,12.49,2,5.36,2.34,6.17h6.82ZM107.18,86.31v5.36H125V86.31Zm41.68,12.1a17.19,17.19,0,0,1-6.78-1.32,17,17,0,0,1-5.43-3.64,16.56,16.56,0,0,1-3.6-5.44,18.23,18.23,0,0,1,0-13.37,16.33,16.33,0,0,1,3.58-5.41A16.8,16.8,0,0,1,142,65.61a17,17,0,0,1,6.73-1.32,17.61,17.61,0,0,1,7,1.29,18,18,0,0,1,5.3,3.51l-4.38,4.38a9.46,9.46,0,0,0-3.34-2.36,11.74,11.74,0,0,0-4.61-.84,11.09,11.09,0,0,0-4.17.77,9.56,9.56,0,0,0-3.32,2.26,10.15,10.15,0,0,0-2.16,3.53,14,14,0,0,0,0,9,9.74,9.74,0,0,0,5.48,5.76,10.67,10.67,0,0,0,4.21.8,11.77,11.77,0,0,0,4.76-.87A10.25,10.25,0,0,0,157,89.19l4.37,4.37a17.75,17.75,0,0,1-5.43,3.56A18.11,18.11,0,0,1,148.86,98.41Z" transform="translate(-22.18 -30.95)"/><path class="cls-2" d="M105.62,52.59a4.47,4.47,0,0,0-3,3.77L84.79,47.09l-.06,0,3.58-1.91L90.38,44l1.6.85,4.19,2.34,4.19,2.44Z" transform="translate(-22.18 -30.95)"/><polygon class="cls-3" points="68.2 0.01 68.2 9.34 68.02 9.43 65.97 10.56 62.17 12.66 61.53 13.02 54.37 16.98 40.05 24.92 40.05 15.78 47.25 11.75 54.29 7.8 60.88 4.09 68.02 0.1 68.2 0.01"/><polygon class="cls-4" points="96 16.2 96 24.82 92.42 22.82 82.03 17.03 74.44 12.81 69.94 10.29 68.21 9.33 68.2 9.34 68.2 0.01 68.21 0 75.41 4.19 81.28 7.63 82.17 8.14 96 16.2"/><ellipse class="cls-5" cx="85.56" cy="25.68" rx="3.25" ry="2.57"/></svg>